<?xml version="1.0" standalone="no"?>
<!DOCTYPE svg PUBLIC "-//W3C//DTD SVG 20010904//EN"
 "http://www.w3.org/TR/2001/REC-SVG-20010904/DTD/svg10.dtd">
<svg version="1.0" xmlns="http://www.w3.org/2000/svg"
 width="2400.000000pt" height="2400.000000pt" viewBox="0 0 2400.000000 2400.000000"
 preserveAspectRatio="xMidYMid meet">
<metadata>
Created by potrace 1.14, written by Peter Selinger 2001-2017
</metadata>
<g transform="translate(0.000000,2400.000000) scale(0.100000,-0.100000)"
fill="#000000" stroke="none">
<path d="M14000 14005 c5497 -5497 9996 -9995 9997 -9995 2 0 3 4498 3 9995
l0 9995 -9997 0 -9998 0 9995 -9995z"/>
<path d="M0 12100 l0 -8095 4030 4030 c2217 2216 4030 4033 4030 4036 0 3
-1778 1796 -3951 3985 -2173 2188 -3986 4015 -4030 4059 l-79 80 0 -8095z"/>
<path d="M8030 4025 l-4025 -4025 8025 0 8024 0 -485 488 c-267 268 -2066
2079 -3998 4025 -1932 1945 -3513 3537 -3514 3537 -1 0 -1813 -1811 -4027
-4025z"/>
</g>
</svg>
